<svg width="102" height="19" viewBox="0 0 102 19" fill="none" xmlns="http://www.w3.org/2000/svg">
<path d="M1.072 18.12C0.768 18.12 0.528 18.032 0.352 17.856C0.176 17.664 0.0880001 17.416 0.0880001 17.112V2.04C0.0880001 1.752 0.176 1.52 0.352 1.344C0.544 1.168 0.792 1.08 1.096 1.08H6.784C8.56 1.08 9.936 1.512 10.912 2.376C11.904 3.24 12.4 4.464 12.4 6.048C12.4 7.632 11.904 8.864 10.912 9.744C9.92 10.624 8.544 11.064 6.784 11.064H2.056V17.112C2.056 17.416 1.968 17.664 1.792 17.856C1.616 18.032 1.376 18.12 1.072 18.12ZM6.592 9.432C9.168 9.432 10.456 8.304 10.456 6.048C10.456 3.824 9.168 2.712 6.592 2.712H2.056V9.432H6.592ZM19.7418 18.168C18.6378 18.168 17.6618 17.92 16.8138 17.424C15.9818 16.928 15.3338 16.224 14.8698 15.312C14.4218 14.384 14.1978 13.312 14.1978 12.096C14.1978 10.88 14.4218 9.816 14.8698 8.904C15.3338 7.976 15.9818 7.264 16.8138 6.768C17.6618 6.272 18.6378 6.024 19.7418 6.024C20.8458 6.024 21.8218 6.272 22.6698 6.768C23.5178 7.264 24.1658 7.976 24.6138 8.904C25.0778 9.816 25.3098 10.88 25.3098 12.096C25.3098 13.312 25.0778 14.384 24.6138 15.312C24.1658 16.224 23.5178 16.928 22.6698 17.424C21.8218 17.92 20.8458 18.168 19.7418 18.168ZM19.7418 16.56C20.8938 16.56 21.7738 16.184 22.3818 15.432C23.0058 14.664 23.3178 13.552 23.3178 12.096C23.3178 10.672 23.0058 9.576 22.3818 8.808C21.7578 8.024 20.8778 7.632 19.7418 7.632C18.6058 7.632 17.7258 8.024 17.1018 8.808C16.4778 9.576 16.1658 10.672 16.1658 12.096C16.1658 13.536 16.4698 14.64 17.0778 15.408C17.7018 16.176 18.5898 16.56 19.7418 16.56ZM33.9903 6.072C34.6623 6.024 34.9983 6.296 34.9983 6.888C34.9983 7.144 34.9263 7.352 34.7823 7.512C34.6383 7.656 34.3903 7.744 34.0383 7.776L33.3183 7.848C32.2463 7.944 31.4463 8.328 30.9183 9C30.4063 9.656 30.1503 10.432 30.1503 11.328V17.16C30.1503 17.48 30.0623 17.72 29.8863 17.88C29.7103 18.04 29.4783 18.12 29.1903 18.12C28.9023 18.12 28.6623 18.04 28.4703 17.88C28.2943 17.704 28.2063 17.464 28.2063 17.16V7.032C28.2063 6.728 28.3023 6.496 28.4943 6.336C28.6863 6.16 28.9183 6.072 29.1903 6.072C29.4463 6.072 29.6623 6.16 29.8383 6.336C30.0143 6.496 30.1023 6.72 30.1023 7.008V8.352C30.4383 7.648 30.9103 7.112 31.5183 6.744C32.1423 6.376 32.8543 6.16 33.6543 6.096L33.9903 6.072ZM43.0047 16.584C43.5647 16.632 43.8447 16.888 43.8447 17.352C43.8447 17.624 43.7407 17.832 43.5327 17.976C43.3407 18.104 43.0447 18.152 42.6447 18.12L41.9967 18.072C40.7167 17.976 39.7727 17.592 39.1647 16.92C38.5567 16.248 38.2527 15.232 38.2527 13.872V7.848H36.6447C36.3727 7.848 36.1567 7.784 35.9967 7.656C35.8527 7.512 35.7807 7.328 35.7807 7.104C35.7807 6.864 35.8527 6.672 35.9967 6.528C36.1567 6.384 36.3727 6.312 36.6447 6.312H38.2527V3.6C38.2527 3.296 38.3407 3.064 38.5167 2.904C38.6927 2.728 38.9327 2.64 39.2367 2.64C39.5247 2.64 39.7567 2.728 39.9327 2.904C40.1087 3.064 40.1967 3.296 40.1967 3.6V6.312H42.8607C43.1167 6.312 43.3167 6.384 43.4607 6.528C43.6207 6.672 43.7007 6.864 43.7007 7.104C43.7007 7.328 43.6207 7.512 43.4607 7.656C43.3167 7.784 43.1167 7.848 42.8607 7.848H40.1967V13.968C40.1967 14.848 40.3727 15.488 40.7247 15.888C41.0927 16.272 41.6367 16.488 42.3567 16.536L43.0047 16.584ZM50.6089 18.168C49.5049 18.168 48.5289 17.92 47.6809 17.424C46.8489 16.928 46.2009 16.224 45.7369 15.312C45.2889 14.384 45.0649 13.312 45.0649 12.096C45.0649 10.88 45.2889 9.816 45.7369 8.904C46.2009 7.976 46.8489 7.264 47.6809 6.768C48.5289 6.272 49.5049 6.024 50.6089 6.024C51.7129 6.024 52.6889 6.272 53.5369 6.768C54.3849 7.264 55.0329 7.976 55.4809 8.904C55.9449 9.816 56.1769 10.88 56.1769 12.096C56.1769 13.312 55.9449 14.384 55.4809 15.312C55.0329 16.224 54.3849 16.928 53.5369 17.424C52.6889 17.92 51.7129 18.168 50.6089 18.168ZM50.6089 16.56C51.7609 16.56 52.6409 16.184 53.2489 15.432C53.8729 14.664 54.1849 13.552 54.1849 12.096C54.1849 10.672 53.8729 9.576 53.2489 8.808C52.6249 8.024 51.7449 7.632 50.6089 7.632C49.4729 7.632 48.5929 8.024 47.9689 8.808C47.3449 9.576 47.0329 10.672 47.0329 12.096C47.0329 13.536 47.3369 14.64 47.9449 15.408C48.5689 16.176 49.4569 16.56 50.6089 16.56ZM64.21 2.616C63.362 2.68 62.722 2.952 62.29 3.432C61.858 3.896 61.642 4.6 61.642 5.544V6.312H64.306C64.578 6.312 64.786 6.384 64.93 6.528C65.074 6.672 65.146 6.864 65.146 7.104C65.146 7.344 65.074 7.528 64.93 7.656C64.786 7.784 64.578 7.848 64.306 7.848H61.642V17.16C61.642 17.464 61.546 17.704 61.354 17.88C61.178 18.04 60.954 18.12 60.682 18.12C60.394 18.12 60.154 18.04 59.962 17.88C59.786 17.704 59.698 17.464 59.698 17.16V7.848H58.09C57.818 7.848 57.602 7.784 57.442 7.656C57.298 7.512 57.226 7.328 57.226 7.104C57.226 6.864 57.298 6.672 57.442 6.528C57.602 6.384 57.818 6.312 58.09 6.312H59.698V5.88C59.698 4.44 60.058 3.312 60.778 2.496C61.498 1.664 62.53 1.2 63.874 1.104L64.498 1.056C64.914 1.024 65.21 1.064 65.386 1.176C65.578 1.288 65.674 1.488 65.674 1.776C65.674 2.24 65.394 2.504 64.834 2.568L64.21 2.616ZM71.6558 18.168C70.5518 18.168 69.5758 17.92 68.7278 17.424C67.8958 16.928 67.2478 16.224 66.7838 15.312C66.3358 14.384 66.1118 13.312 66.1118 12.096C66.1118 10.88 66.3358 9.816 66.7838 8.904C67.2478 7.976 67.8958 7.264 68.7278 6.768C69.5758 6.272 70.5518 6.024 71.6558 6.024C72.7598 6.024 73.7358 6.272 74.5838 6.768C75.4318 7.264 76.0798 7.976 76.5278 8.904C76.9918 9.816 77.2238 10.88 77.2238 12.096C77.2238 13.312 76.9918 14.384 76.5278 15.312C76.0798 16.224 75.4318 16.928 74.5838 17.424C73.7358 17.92 72.7598 18.168 71.6558 18.168ZM71.6558 16.56C72.8078 16.56 73.6878 16.184 74.2958 15.432C74.9198 14.664 75.2318 13.552 75.2318 12.096C75.2318 10.672 74.9198 9.576 74.2958 8.808C73.6718 8.024 72.7918 7.632 71.6558 7.632C70.5198 7.632 69.6398 8.024 69.0158 8.808C68.3918 9.576 68.0798 10.672 68.0798 12.096C68.0798 13.536 68.3838 14.64 68.9918 15.408C69.6158 16.176 70.5038 16.56 71.6558 16.56ZM81.1043 18.12C80.8163 18.12 80.5763 18.04 80.3843 17.88C80.2083 17.704 80.1203 17.464 80.1203 17.16V1.92C80.1203 1.616 80.2083 1.384 80.3843 1.224C80.5763 1.048 80.8163 0.959999 81.1043 0.959999C81.3763 0.959999 81.6003 1.048 81.7763 1.224C81.9683 1.384 82.0643 1.616 82.0643 1.92V17.16C82.0643 17.464 81.9683 17.704 81.7763 17.88C81.6003 18.04 81.3763 18.12 81.1043 18.12ZM86.6824 18.12C86.3944 18.12 86.1544 18.04 85.9624 17.88C85.7864 17.704 85.6984 17.464 85.6984 17.16V7.032C85.6984 6.728 85.7864 6.496 85.9624 6.336C86.1544 6.16 86.3944 6.072 86.6824 6.072C86.9704 6.072 87.2024 6.16 87.3784 6.336C87.5544 6.496 87.6424 6.728 87.6424 7.032V17.16C87.6424 17.48 87.5544 17.72 87.3784 17.88C87.2024 18.04 86.9704 18.12 86.6824 18.12ZM86.6824 3.552C86.2984 3.552 85.9864 3.44 85.7464 3.216C85.5064 2.992 85.3864 2.696 85.3864 2.328C85.3864 1.976 85.5064 1.688 85.7464 1.464C85.9864 1.24 86.2984 1.128 86.6824 1.128C87.0664 1.128 87.3784 1.24 87.6184 1.464C87.8584 1.688 87.9784 1.976 87.9784 2.328C87.9784 2.696 87.8584 2.992 87.6184 3.216C87.3784 3.44 87.0664 3.552 86.6824 3.552ZM96.1246 18.168C95.0206 18.168 94.0446 17.92 93.1966 17.424C92.3646 16.928 91.7166 16.224 91.2526 15.312C90.8046 14.384 90.5806 13.312 90.5806 12.096C90.5806 10.88 90.8046 9.816 91.2526 8.904C91.7166 7.976 92.3646 7.264 93.1966 6.768C94.0446 6.272 95.0206 6.024 96.1246 6.024C97.2286 6.024 98.2046 6.272 99.0526 6.768C99.9006 7.264 100.549 7.976 100.997 8.904C101.461 9.816 101.693 10.88 101.693 12.096C101.693 13.312 101.461 14.384 100.997 15.312C100.549 16.224 99.9006 16.928 99.0526 17.424C98.2046 17.92 97.2286 18.168 96.1246 18.168ZM96.1246 16.56C97.2766 16.56 98.1566 16.184 98.7646 15.432C99.3886 14.664 99.7006 13.552 99.7006 12.096C99.7006 10.672 99.3886 9.576 98.7646 8.808C98.1406 8.024 97.2606 7.632 96.1246 7.632C94.9886 7.632 94.1086 8.024 93.4846 8.808C92.8606 9.576 92.5486 10.672 92.5486 12.096C92.5486 13.536 92.8526 14.64 93.4606 15.408C94.0846 16.176 94.9726 16.56 96.1246 16.56Z" fill="white"/>
</svg>
